<?xml version="1.0" encoding="UTF-8" standalone="no"?>
<!-- Created with Inkscape (http://www.inkscape.org/) -->

<svg
   xmlns:dc="http://purl.org/dc/elements/1.1/"
   xmlns:cc="http://creativecommons.org/ns#"
   xmlns:rdf="http://www.w3.org/1999/02/22-rdf-syntax-ns#"
   xmlns:svg="http://www.w3.org/2000/svg"
   xmlns="http://www.w3.org/2000/svg"
   xmlns:sodipodi="http://sodipodi.sourceforge.net/DTD/sodipodi-0.dtd"
   xmlns:inkscape="http://www.inkscape.org/namespaces/inkscape"
   width="149.59399"
   height="149.59399"
   id="svg2"
   version="1.1"
   inkscape:version="0.91 r13725"
   sodipodi:docname="ic_launcher.svg">
  <defs
     id="defs4" />
  <sodipodi:namedview
     id="base"
     pagecolor="#ffffff"
     bordercolor="#666666"
     borderopacity="1.0"
     inkscape:pageopacity="0.0"
     inkscape:pageshadow="2"
     inkscape:zoom="2.8284271"
     inkscape:cx="213.84228"
     inkscape:cy="14.525809"
     inkscape:document-units="px"
     inkscape:current-layer="layer1"
     showgrid="false"
     inkscape:window-width="1920"
     inkscape:window-height="1056"
     inkscape:window-x="0"
     inkscape:window-y="24"
     inkscape:window-maximized="1"
     fit-margin-top="20"
     fit-margin-left="20"
     fit-margin-right="20"
     fit-margin-bottom="20"
     inkscape:snap-bbox="true"
     inkscape:bbox-nodes="true"
     inkscape:bbox-paths="true"
     inkscape:snap-bbox-midpoints="false"
     inkscape:snap-bbox-edge-midpoints="true"
     inkscape:snap-intersection-paths="true"
     inkscape:object-nodes="true"
     inkscape:snap-smooth-nodes="false"
     inkscape:snap-midpoints="false"
     inkscape:object-paths="false"
     inkscape:snap-nodes="true"
     inkscape:snap-global="true"
     showguides="false" />
  <metadata
     id="metadata7">
    <rdf:RDF>
      <cc:Work
         rdf:about="">
        <dc:format>image/svg+xml</dc:format>
        <dc:type
           rdf:resource="http://purl.org/dc/dcmitype/StillImage" />
        <dc:title />
      </cc:Work>
    </rdf:RDF>
  </metadata>
  <g
     inkscape:label="Ebene 1"
     inkscape:groupmode="layer"
     id="layer1"
     transform="translate(-257.78125,-548.74975)">
    <path
       inkscape:connector-curvature="0"
       d="m 358.67206,605.45786 0,-10.43751 c 0,-14.40378 -11.69003,-26.09382 -26.09382,-26.09382 -14.40376,0 -26.0938,11.69004 -26.0938,26.09382 l 0,10.43751 z m -9.91565,0 -32.35633,0 0,-10.43751 c 0,-8.92409 7.25407,-16.17818 16.17816,-16.17818 8.92409,0 16.17817,7.25409 16.17817,16.17818 z"
       id="path3390"
       sodipodi:nodetypes="csssccccsssc"
       style="fill:#3b1c4a;fill-opacity:1" />
    <path
       inkscape:connector-curvature="0"
       style="fill:#3b1c4a;fill-opacity:1"
       d="m 301.12123,605.28881 c -5.67035,0.0831 -10.28517,4.74049 -10.28517,10.42969 l 0,12.29687 c 7.87665,0 14.62877,6.1888 14.26953,13.8125 -0.35924,7.62369 -6.39288,13.78907 -14.26953,13.78907 l 0,12.28906 c 0,5.74065 4.69689,10.4375 10.4375,10.4375 l 40.68555,0 0,-6.33203 2.0664,0 0,6.33203 19.87305,0 c 5.63842,0 10.25871,-4.534 10.42187,-10.13477 l 0,-12.59179 -0.0215,0 c -7.87667,0 -14.26954,-6.16538 -14.26954,-13.78907 0,-7.6237 6.39287,-13.8125 14.26954,-13.8125 0.008,0 0.0147,-2e-5 0.0215,0 l 0,-12.59961 c -0.16168,-5.54966 -4.70105,-10.04531 -10.26953,-10.12695 l -20.02539,0 0,6.0625 -2.0664,0 0,-6.0625 -40.83789,0 z m 40.83789,10.72852 2.0664,0 0,9.33203 -2.0664,0 0,-9.33203 z m 0,13.99804 2.0664,0 0,9.33203 -2.0664,0 0,-9.33203 z m -16.89453,2.45899 c 2.78641,2e-5 4.86007,0.7352 6.21875,2.22851 1.35864,1.47107 2.02343,3.5145 2.02343,6.14453 l 0,2.58399 c 0,2.63007 -0.66479,4.69221 -2.02343,6.18555 -1.35868,1.47105 -3.43234,2.20898 -6.21875,2.20898 -0.41451,0 -0.91064,-0.018 -1.48633,-0.0625 -0.57574,-0.0223 -1.18333,-0.0768 -1.82813,-0.16601 l 0,5.91601 c 0,0.17832 -0.0767,0.3233 -0.21484,0.45703 -0.13815,0.13372 -0.29039,0.20899 -0.47461,0.20899 l -3.18555,0 c -0.18424,0 -0.33447,-0.0752 -0.47265,-0.20899 -0.13817,-0.13374 -0.21485,-0.27871 -0.21485,-0.45703 l 0,-23.26953 c 0,-0.24518 0.0569,-0.42958 0.17188,-0.54102 0.11509,-0.13376 0.36242,-0.26358 0.7539,-0.375 1.08231,-0.26747 2.24436,-0.46895 3.46485,-0.625 1.22049,-0.15601 2.38096,-0.2285 3.48633,-0.22851 z m 0,3.60351 c -0.62174,1e-5 -1.24975,0.018 -1.89454,0.0625 -0.62176,0.0447 -1.09751,0.0989 -1.41992,0.16602 l 0,11.66601 c 0.48362,0.0666 1.03294,0.12146 1.67774,0.16602 0.6678,0.0446 1.22221,0.084 1.63672,0.084 0.73689,2e-5 1.34451,-0.12981 1.82812,-0.375 0.48358,-0.24517 0.86428,-0.57653 1.14063,-1 0.27633,-0.42348 0.46842,-0.92051 0.56054,-1.5 0.11509,-0.5795 0.17187,-1.22507 0.17188,-1.91602 l 0,-2.58398 c -10e-6,-0.69091 -0.0568,-1.31501 -0.17188,-1.89453 -0.0922,-0.5795 -0.28421,-1.0765 -0.56054,-1.5 -0.27635,-0.42347 -0.65705,-0.75482 -1.14063,-1 -0.48361,-0.24514 -1.09123,-0.37499 -1.82812,-0.375 z m 16.89453,7.93555 2.0664,0 0,9.33399 -2.0664,0 0,-9.33399 z m 0,14 2.0664,0 0,9.33203 -2.0664,0 0,-9.33203 z"
       id="path3390-6" />
  </g>
</svg>
